<?xml version="1.0" encoding="UTF-8" standalone="no"?>
<!-- Generator: Adobe Illustrator 16.0.3, SVG Export Plug-In . SVG Version: 6.00 Build 0)  -->

<svg
   xmlns:dc="http://purl.org/dc/elements/1.1/"
   xmlns:cc="http://creativecommons.org/ns#"
   xmlns:rdf="http://www.w3.org/1999/02/22-rdf-syntax-ns#"
   xmlns:svg="http://www.w3.org/2000/svg"
   xmlns="http://www.w3.org/2000/svg"
   xmlns:sodipodi="http://sodipodi.sourceforge.net/DTD/sodipodi-0.dtd"
   xmlns:inkscape="http://www.inkscape.org/namespaces/inkscape"
   version="1.0"
   id="Layer_1"
   x="0px"
   y="0px"
   width="221.097px"
   height="85.039px"
   viewBox="0 0 221.097 85.039"
   enable-background="new 0 0 221.097 85.039"
   xml:space="preserve"
   inkscape:version="0.48.2 r9819"
   sodipodi:docname="iDoRecall_logo_white.svg"><sodipodi:namedview
   pagecolor="#ffffff"
   bordercolor="#666666"
   borderopacity="1"
   objecttolerance="10"
   gridtolerance="10"
   guidetolerance="10"
   inkscape:pageopacity="0"
   inkscape:pageshadow="2"
   inkscape:window-width="1448"
   inkscape:window-height="823"
   id="namedview19"
   showgrid="false"
   inkscape:zoom="2.6413746"
   inkscape:cx="104.1789"
   inkscape:cy="26.70299"
   inkscape:window-x="2205"
   inkscape:window-y="232"
   inkscape:window-maximized="0"
   inkscape:current-layer="Layer_1" />
   <metadata
   id="metadata37"><rdf:RDF><cc:Work
       rdf:about=""><dc:format>image/svg+xml</dc:format><dc:type
         rdf:resource="http://purl.org/dc/dcmitype/StillImage" /><dc:title></dc:title></cc:Work></rdf:RDF></metadata><defs
   id="defs35" />
	<g
   id="g5"
   inkscape:export-filename="c:\prg\IDR\media\logo\iDoRecall_logo_256x68_white_on_transparent.png"
   inkscape:export-xdpi="117.49122"
   inkscape:export-ydpi="117.49122">
		<g
   id="g7">
			<path
   fill="#FFFFFF"
   d="M11.013,16.094h8.334v6.069h-8.334V16.094z M11.013,25.378h8.334v27.9h-8.334V25.378z"
   id="path9" />
			<path
   fill="#FFFFFF"
   d="M23.88,16.358h13.661c9.281,0,14.978,4.537,14.978,12.605v11.713c0,8.172-5.696,12.602-14.978,12.602     H23.88V16.358z M37.542,45.37c4.114,0,5.906-2.428,5.906-4.482V28.752c0-2.108-1.792-4.484-5.906-4.484h-4.589V45.37H37.542z"
   id="path11" />
			<path
   fill="#FFFFFF"
   d="M54.785,43.575v-8.547c0-5.748,4.165-10.285,12.444-10.285c8.178,0,12.344,4.537,12.344,10.285v8.547     c0,5.854-4.166,10.338-12.344,10.338C58.95,53.913,54.785,49.429,54.785,43.575z M71.237,43.31v-7.855     c0-1.742-1.316-3.219-4.008-3.219c-2.95,0-4.112,1.586-4.112,3.219v7.855c0,1.584,1.162,3.113,4.112,3.113     C69.921,46.423,71.237,44.999,71.237,43.31z"
   id="path13" />
			<path
   fill="#FFFFFF"
   d="M84.063,16.358h14.926c6.33,0,9.969,4.117,9.969,10.708c0,6.011-3.111,9.651-8.176,10.444l9.02,15.135     v0.633h-1.582l-9.283-15.508H85.751v15.508h-1.688V16.358z M98.517,36.188c5.379,0,8.701-3.322,8.701-9.122     c0-5.694-3.109-9.126-8.438-9.126H85.751v18.248H98.517z"
   id="path15" />
			<path
   fill="#FFFFFF"
   d="M111.804,43.997v-8.227c0-5.803,3.902-9.971,10.863-9.971c6.857,0,10.707,4.063,10.707,9.916v5.119     h-18.723v3.107c0,4.273,2.795,7.33,8.016,7.33c4.799,0,7.174-2.477,7.65-5.959h2.848c-0.424,5.17-4.063,8.6-10.498,8.6     C115.706,53.913,111.804,49.851,111.804,43.997z M130.528,38.3v-2.584c0-4.168-2.641-7.277-7.965-7.277     c-5.117,0-7.912,3.059-7.912,7.277V38.3H130.528z"
   id="path17" />
			<path
   fill="#FFFFFF"
   d="M135.853,43.839V35.61c0-6.01,4.115-10.074,11.076-10.074c6.695,0,10.916,3.744,10.916,9.707v0.262     h-4.221V35.19c0-3.379-2.424-5.804-6.695-5.804c-4.535,0-6.857,2.53-6.857,6.118v8.438c0,3.588,2.322,6.121,6.857,6.121     c4.324,0,6.695-2.482,6.695-5.91v-0.367h4.221v0.316c0,5.906-4.27,9.811-10.916,9.811     C139.968,53.913,135.853,49.851,135.853,43.839z"
   id="path19" />
			<path
   fill="#FFFFFF"
   d="M159.106,45.683c0-5.693,3.695-8.965,11.182-8.965h5.697v-1.74c0-2.375-1.373-3.744-4.43-3.744     c-3.115,0-4.43,1.369-4.43,3.164h-6.699c0-5.434,3.531-9.391,11.129-9.391c7.596,0,11.289,3.957,11.289,9.496v18.775h-3.959     l-2.004-2.688c-2.004,1.846-4.377,3.322-8.49,3.322C163.433,53.913,159.106,51.116,159.106,45.683z M175.985,44.999v-3.057     h-5.697c-3.588,0-4.322,1.688-4.322,2.848c0,1.842,1.371,2.898,3.85,2.898C172.452,47.688,174.353,46.79,175.985,44.999z"
   id="path21" />
			<path
   fill="#FFFFFF"
   d="M186.794,16.094h7.492v37.185h-7.492V16.094z"
   id="path23" />
			<path
   fill="#FFFFFF"
   d="M198.343,16.094h8.336v37.185h-8.336V16.094z"
   id="path25" />
		</g>
		<rect
   x="11.022"
   y="63.688004"
   width="8.3249998"
   height="4.494"
   id="rect27"
   style="fill:#ec2227" />
		<path
   d="m 23.888,68.183 h 55.666 c 0,0 0,-1.826 0,-4.494 H 23.888 c 0,2.667 0,4.494 0,4.494 z"
   id="path29"
   style="fill:#fbb03c" />
		<path
   d="M 83.997,68.183 H 206.79 c 0,0 0,-1.906 0,-4.494 H 83.997 c 0,2.587 0,4.494 0,4.494 z"
   id="path31"
   style="fill:#96c9b2" />
	</g>
</svg>