<?xml version="1.0" encoding="UTF-8" standalone="no"?>
<!-- Generator: Adobe Illustrator 16.0.3, SVG Export Plug-In . SVG Version: 6.00 Build 0)  -->

<svg
   xmlns:dc="http://purl.org/dc/elements/1.1/"
   xmlns:cc="http://creativecommons.org/ns#"
   xmlns:rdf="http://www.w3.org/1999/02/22-rdf-syntax-ns#"
   xmlns:svg="http://www.w3.org/2000/svg"
   xmlns="http://www.w3.org/2000/svg"
   version="1.0"
   id="Layer_1"
   x="0px"
   y="0px"
   width="200px"
   height="60px"
   viewBox="0 0 200 60"
   enable-background="new 0 0 200 60"
   xml:space="preserve"
   ><metadata
   id="metadata37"><rdf:RDF><cc:Work
       rdf:about=""><dc:format>image/svg+xml</dc:format><dc:type
         rdf:resource="http://purl.org/dc/dcmitype/StillImage" /></cc:Work></rdf:RDF></metadata><defs
   id="defs35" />
<g
   id="g3">
	<g
   id="g5">
		<g
   id="g7">
			<path
   fill="#263238"
   d="M2.111,2.956h8.334v6.069H2.111V2.956z M2.111,12.239h8.334v27.901H2.111V12.239z"
   id="path9" />
			<path
   fill="#263238"
   d="M14.979,3.22H28.64c9.281,0,14.978,4.538,14.978,12.605v11.713c0,8.172-5.696,12.603-14.978,12.603     H14.979V3.22z M28.64,32.231c4.114,0,5.906-2.428,5.906-4.481V15.614c0-2.108-1.792-4.484-5.906-4.484h-4.589v21.102H28.64z"
   id="path11" />
			<path
   fill="#263238"
   d="M45.883,30.438v-8.547c0-5.748,4.165-10.286,12.444-10.286c8.179,0,12.344,4.538,12.344,10.286v8.547     c0,5.853-4.165,10.338-12.344,10.338C50.048,40.775,45.883,36.29,45.883,30.438z M62.336,30.172v-7.855     c0-1.742-1.316-3.219-4.009-3.219c-2.95,0-4.112,1.586-4.112,3.219v7.855c0,1.584,1.162,3.113,4.112,3.113     C61.02,33.285,62.336,31.861,62.336,30.172z"
   id="path13" />
			<path
   fill="#263238"
   d="M75.162,3.22h14.926c6.33,0,9.969,4.118,9.969,10.708c0,6.011-3.111,9.651-8.176,10.444l9.02,15.136     v0.633h-1.582l-9.284-15.508H76.85v15.508h-1.688V3.22z M89.614,23.051c5.379,0,8.702-3.322,8.702-9.123     c0-5.695-3.11-9.125-8.438-9.125H76.85v18.248H89.614z"
   id="path15" />
			<path
   fill="#263238"
   d="M102.901,30.859v-8.228c0-5.802,3.903-9.97,10.864-9.97c6.857,0,10.707,4.062,10.707,9.916v5.118H105.75     v3.108c0,4.272,2.795,7.33,8.016,7.33c4.799,0,7.174-2.477,7.65-5.959h2.848c-0.425,5.169-4.063,8.6-10.498,8.6     C106.805,40.775,102.901,36.713,102.901,30.859z M121.627,25.162v-2.584c0-4.168-2.641-7.278-7.965-7.278     c-5.117,0-7.912,3.059-7.912,7.278v2.584H121.627z"
   id="path17" />
			<path
   fill="#263238"
   d="M126.951,30.701v-8.229c0-6.009,4.114-10.074,11.076-10.074c6.695,0,10.916,3.745,10.916,9.708v0.262     h-4.221v-0.315c0-3.378-2.424-5.803-6.695-5.803c-4.536,0-6.857,2.531-6.857,6.119v8.438c0,3.588,2.321,6.121,6.857,6.121     c4.323,0,6.695-2.482,6.695-5.91v-0.367h4.221v0.316c0,5.906-4.27,9.811-10.916,9.811     C131.065,40.775,126.951,36.713,126.951,30.701z"
   id="path19" />
			<path
   fill="#263238"
   d="M150.205,32.545c0-5.694,3.695-8.966,11.182-8.966h5.696V21.84c0-2.375-1.372-3.744-4.429-3.744     c-3.115,0-4.431,1.369-4.431,3.163h-6.699c0-5.434,3.532-9.39,11.13-9.39c7.595,0,11.289,3.956,11.289,9.495v18.776h-3.959     l-2.004-2.688c-2.004,1.845-4.377,3.322-8.49,3.322C154.531,40.775,150.205,37.979,150.205,32.545z M167.083,31.861v-3.058     h-5.696c-3.588,0-4.323,1.688-4.323,2.848c0,1.843,1.372,2.899,3.851,2.899C163.55,34.551,165.45,33.652,167.083,31.861z"
   id="path21" />
			<path
   fill="#263238"
   d="M177.893,2.956h7.492v37.185h-7.492V2.956z"
   id="path23" />
			<path
   fill="#263238"
   d="M189.441,2.956h8.335v37.185h-8.335V2.956z"
   id="path25" />
		</g>
		<rect
   x="2.1199999"
   y="50.550999"
   width="8.3249998"
   height="4.494"
   id="rect27"
   style="fill:#ec2227" />
		<path
   d="m 14.986,55.045 h 55.666 c 0,0 0,-1.826 0,-4.494 H 14.986 c 0,2.668 0,4.494 0,4.494 z"
   id="path29"
   style="fill:#fbb03c" />
		<path
   d="m 75.096,55.045 h 122.793 c 0,0 0,-1.906 0,-4.494 H 75.096 c 0,2.588 0,4.494 0,4.494 z"
   id="path31"
   style="fill:#96c9b2" />
	</g>
</g>
</svg>
