<?xml version="1.0" encoding="utf-8"?>
<!-- Generator: Adobe Illustrator 16.0.3, SVG Export Plug-In . SVG Version: 6.00 Build 0)  -->
<!DOCTYPE svg PUBLIC "-//W3C//DTD SVG 1.0//EN" "http://www.w3.org/TR/2001/REC-SVG-20010904/DTD/svg10.dtd">
<svg version="1.0" id="Layer_1" xmlns="http://www.w3.org/2000/svg" xmlns:xlink="http://www.w3.org/1999/xlink" x="0px" y="0px"
	 width="76.096px" height="54.441px" viewBox="0 0 76.096 54.441" enable-background="new 0 0 76.096 54.441" xml:space="preserve">
<g>
	<path fill="#263238" d="M2.69,2.215h8.303V8.26H2.69V2.215z M2.69,11.464h8.303V39.26H2.69V11.464z"/>
	<path fill="#263238" d="M15.509,2.479h13.61c9.248,0,14.923,4.52,14.923,12.559v11.668c0,8.14-5.676,12.555-14.923,12.555h-13.61
		V2.479z M29.119,31.38c4.099,0,5.883-2.418,5.883-4.465V14.826c0-2.1-1.784-4.47-5.883-4.47h-4.572V31.38H29.119z"/>
	<path fill="#263238" d="M47.99,2.479h14.868c6.306,0,9.931,4.101,9.931,10.668c0,5.987-3.1,9.614-8.143,10.405l8.986,15.076v0.633
		h-1.579l-9.248-15.449H49.669V39.26h-1.68V2.479z M62.386,22.234c5.359,0,8.671-3.308,8.671-9.087c0-5.675-3.101-9.092-8.41-9.092
		H49.669v18.179H62.386z"/>
	<rect x="2.667" y="47.737" fill="#EC2227" width="8.293" height="4.476"/>
	<rect x="15.439" y="47.599" fill="#FBB03C" width="9.127" height="4.476"/>
	<rect x="28.608" y="47.599" fill="#96C9B2" width="45.083" height="4.476"/>
</g>
</svg>
