<?xml version="1.0" encoding="utf-8"?>
<!-- Generator: Adobe Illustrator 16.0.3, SVG Export Plug-In . SVG Version: 6.00 Build 0)  -->
<!DOCTYPE svg PUBLIC "-//W3C//DTD SVG 1.0//EN" "http://www.w3.org/TR/2001/REC-SVG-20010904/DTD/svg10.dtd">
<svg version="1.0" id="Layer_1" xmlns="http://www.w3.org/2000/svg" xmlns:xlink="http://www.w3.org/1999/xlink" x="0px" y="0px"
	 width="85.039px" height="85.039px" viewBox="0 0 85.039 85.039" enable-background="new 0 0 85.039 85.039" xml:space="preserve">
<path fill="#464646" d="M24.903,29.666h4.381v3.19h-4.381V29.666z M24.903,34.547h4.381v14.67h-4.381V34.547z"/>
<path fill="#464646" d="M31.668,29.805h7.183c4.88,0,7.875,2.385,7.875,6.628v6.158c0,4.296-2.995,6.626-7.875,6.626h-7.183V29.805z
	 M38.851,45.058c2.164,0,3.105-1.276,3.105-2.356v-6.38c0-1.109-0.941-2.358-3.105-2.358h-2.413v11.094H38.851z"/>
<path fill="#464646" d="M48.81,29.805h7.848c3.327,0,5.24,2.165,5.24,5.63c0,3.161-1.636,5.074-4.298,5.492l4.742,7.956v0.334
	h-0.833l-4.881-8.153h-6.932v8.153H48.81V29.805z M56.407,40.231c2.828,0,4.576-1.746,4.576-4.796c0-2.994-1.637-4.797-4.438-4.797
	h-6.85v9.593H56.407z"/>
<rect x="24.891" y="53.69" fill="#EC2227" width="4.377" height="2.362"/>
<rect x="31.631" y="53.617" fill="#FBB03C" width="4.817" height="2.362"/>
<rect x="38.581" y="53.617" fill="#94BE3D" width="23.792" height="2.362"/>
</svg>
